<svg width="133" height="40" viewBox="0 0 133 40" fill="none" xmlns="http://www.w3.org/2000/svg">
<path fill-rule="evenodd" clip-rule="evenodd" d="M81.69 31.1987C74.115 36.7995 63.0969 39.7836 53.5938 39.7836C40.2803 39.7836 28.344 34.8714 19.2541 26.6996C18.5655 26.0569 19.1623 25.1846 20.0346 25.6896C29.8131 31.3823 41.8871 34.7796 54.3743 34.7796C62.7756 34.7796 72.0491 33.035 80.5882 29.4082C81.8736 28.9032 82.9295 30.2805 81.69 31.1987Z" fill="white"/>
<path fill-rule="evenodd" clip-rule="evenodd" d="M84.8579 27.5717C83.8938 26.3321 78.4307 26.9749 75.9975 27.2962C75.263 27.3881 75.1252 26.7453 75.8139 26.2862C80.1752 23.2104 87.291 24.1285 88.1174 25.1385C88.9438 26.1485 87.8879 33.3103 83.802 36.7075C83.1593 37.2125 82.5624 36.9371 82.8379 36.2484C83.7561 33.953 85.822 28.8571 84.8579 27.5717Z" fill="white"/>
<path fill-rule="evenodd" clip-rule="evenodd" d="M76.1351 4.70921V1.72515C76.1351 1.26606 76.4564 0.990606 76.8696 0.990606L90.1831 0.990606C90.5963 0.990606 90.9636 1.31197 90.9636 1.72515V4.25013C90.9636 4.66331 90.5963 5.21421 89.9536 6.13239L83.0673 15.9568C85.6382 15.9109 88.3468 16.2782 90.6422 17.5637C91.1472 17.8391 91.2849 18.2982 91.3309 18.7114V21.8791C91.3309 22.3382 90.8718 22.8431 90.3668 22.5677C86.2809 20.41 80.8178 20.1804 76.3187 22.6136C75.8596 22.8432 75.3546 22.3841 75.3546 21.925V18.895C75.3546 18.4359 75.3546 17.6096 75.8596 16.875L83.8477 5.44376H76.9155C76.5023 5.44376 76.1351 5.12239 76.1351 4.70921ZM27.6096 23.2104H23.5696C23.2023 23.1645 22.881 22.8891 22.8351 22.5218L22.8351 1.77106C22.8351 1.35788 23.2023 1.03652 23.6155 1.03652L27.38 1.03652C27.7932 1.03652 28.0687 1.35788 28.1146 1.72515V4.43376H28.2064C29.1705 1.81696 31.0527 0.577431 33.5318 0.577431C36.0568 0.577431 37.6636 1.81696 38.7654 4.43376C39.7295 1.81696 41.979 0.577431 44.3663 0.577431C46.0649 0.577431 47.9012 1.26606 49.0489 2.87287C50.3344 4.6174 50.0589 7.14238 50.0589 9.39191V22.5218C50.0589 22.935 49.6917 23.2563 49.2785 23.2563H45.2844C44.8713 23.2104 44.5499 22.8891 44.5499 22.5218V11.5037C44.5499 10.6314 44.6417 8.42781 44.4581 7.60146C44.1367 6.2242 43.2644 5.81102 42.0708 5.81102C41.1067 5.81102 40.0508 6.45375 39.6377 7.50965C39.2245 8.56555 39.2704 10.3101 39.2704 11.5037V22.5218C39.2704 22.935 38.9031 23.2563 38.4899 23.2563H34.45C34.0368 23.2104 33.7154 22.8891 33.7154 22.5218V11.5037C33.7154 9.20826 34.0827 5.76511 31.2364 5.76511C28.3441 5.76511 28.4359 9.07053 28.4359 11.5037L28.4359 22.5218C28.39 22.8891 28.0687 23.2104 27.6096 23.2104ZM102.441 0.577431C108.455 0.577431 111.714 5.71921 111.714 12.2842C111.714 18.6196 108.133 23.6695 102.441 23.6695C96.5645 23.6695 93.3509 18.5277 93.3509 12.1005C93.3049 5.62739 96.5645 0.577431 102.441 0.577431ZM102.441 4.84693C99.4567 4.84693 99.2731 8.93282 99.2731 11.4578C99.2731 13.9828 99.2272 19.4 102.395 19.4C105.517 19.4 105.7 15.0387 105.7 12.376C105.7 10.6314 105.608 8.51964 105.103 6.86693C104.644 5.39785 103.726 4.84693 102.441 4.84693ZM119.473 23.2104H115.433C115.02 23.1645 114.698 22.8432 114.698 22.4759V1.67924C114.744 1.31197 115.066 0.990606 115.479 0.990606L119.243 0.990606C119.611 0.990606 119.886 1.26607 119.978 1.58743V4.75513H120.07C121.217 1.90879 122.778 0.577431 125.579 0.577431C127.369 0.577431 129.16 1.22015 130.307 3.01059C131.363 4.6633 131.363 7.46373 131.363 9.48372V22.5677C131.317 22.935 130.996 23.2104 130.583 23.2104H126.543C126.176 23.1645 125.854 22.8891 125.808 22.5677V11.2742C125.808 8.97872 126.084 5.6733 123.283 5.6733C122.319 5.6733 121.401 6.31602 120.942 7.32602C120.391 8.61146 120.299 9.85098 120.299 11.2742V22.4759C120.253 22.8891 119.886 23.2104 119.473 23.2104ZM65.5302 13.2941C65.5302 14.855 65.5761 16.1864 64.7956 17.6096C64.1529 18.7573 63.1429 19.4459 61.9952 19.4459C60.4343 19.4459 59.5161 18.2523 59.5161 16.5078C59.5161 13.0646 62.592 12.4219 65.5302 12.4219V13.2941ZM69.616 23.1645C69.3406 23.3941 68.9733 23.44 68.652 23.2563C67.3206 22.1545 67.0452 21.6036 66.3106 20.5477C64.107 22.7972 62.5002 23.4859 59.6538 23.4859C56.2566 23.4859 53.5939 21.3741 53.5939 17.1964C53.5939 13.891 55.3843 11.6873 57.9093 10.5855C60.1129 9.62144 63.1888 9.43782 65.5302 9.16236V8.65736C65.5302 7.69328 65.622 6.54557 65.0252 5.71921C64.5202 4.98467 63.602 4.6633 62.7756 4.6633C61.2148 4.6633 59.8375 5.44376 59.5161 7.09647C59.4243 7.46374 59.1948 7.831 58.8275 7.831L54.9253 7.41782C54.6039 7.32601 54.2366 7.09647 54.3284 6.59147C55.2466 1.81697 59.5161 0.393799 63.3725 0.393799C65.3465 0.393799 67.9174 0.898792 69.4783 2.41378C71.4524 4.25013 71.2688 6.7292 71.2688 9.39191V15.6814C71.2688 17.5636 72.0492 18.39 72.7837 19.4459C73.0592 19.8132 73.1051 20.2723 72.7837 20.5018C71.9115 21.1904 70.4424 22.4759 69.616 23.1645ZM12.5056 13.2941C12.5056 14.855 12.5515 16.1864 11.7711 17.6096C11.1283 18.7573 10.1184 19.4459 8.97064 19.4459C7.40974 19.4459 6.49157 18.2523 6.49157 16.5078C6.49157 13.0646 9.56746 12.4219 12.5056 12.4219V13.2941ZM16.5456 23.1645C16.2701 23.3941 15.9029 23.44 15.5815 23.2563C14.2501 22.1545 13.9747 21.6036 13.2401 20.5477C11.0365 22.7972 9.42973 23.4859 6.58339 23.4859C3.18614 23.4859 0.523437 21.3741 0.523437 17.1964C0.523437 13.891 2.31387 11.6873 4.83885 10.5855C7.04247 9.62144 10.1184 9.43782 12.4597 9.16236V8.65736C12.4597 7.69328 12.5515 6.54557 11.9547 5.71921C11.4497 4.98467 10.5315 4.6633 9.70518 4.6633C8.14428 4.6633 6.76702 5.44376 6.44566 7.09647C6.35384 7.46374 6.1243 7.831 5.75703 7.831L1.85479 7.41782C1.53343 7.32601 1.16616 7.09647 1.25798 6.59147C2.17615 1.81697 6.44566 0.393799 10.302 0.393799C12.2761 0.393799 14.847 0.898792 16.4079 2.41378C18.3819 4.25013 18.1983 6.7292 18.1983 9.39191L18.1983 15.6814C18.1983 17.5636 18.9787 18.39 19.7133 19.4459C19.9887 19.8132 20.0346 20.2723 19.7133 20.5018C18.841 21.1904 17.3719 22.4759 16.5456 23.1645Z" fill="white"/>
</svg>
