<svg width="119" height="40" viewBox="0 0 119 40" fill="none" xmlns="http://www.w3.org/2000/svg">
<path d="M27.6716 21.209C27.654 17.9817 29.1092 15.5458 32.0546 13.7518C30.4066 11.3862 27.917 10.0847 24.6298 9.82969C21.5178 9.58346 18.1166 11.65 16.8719 11.65C15.557 11.65 12.5415 9.91763 10.1746 9.91763C5.2832 9.99678 0.0849609 13.8309 0.0849609 21.6312C0.0849609 23.9352 0.505729 26.3154 1.34727 28.7718C2.46931 31.9992 6.51921 39.9137 10.7444 39.7818C12.9535 39.7291 14.5138 38.2077 17.3891 38.2077C20.1766 38.2077 21.623 39.7818 24.0863 39.7818C28.3466 39.7203 32.0108 32.5268 33.0802 29.2907C27.3648 26.5909 27.6716 21.3761 27.6716 21.209ZM22.71 6.7694C25.1031 3.92017 24.884 1.32596 24.8139 0.393799C22.7013 0.516914 20.2555 1.836 18.8617 3.46288C17.3277 5.20408 16.4248 7.3586 16.6176 9.78572C18.9056 9.9616 20.9919 8.78321 22.71 6.7694Z" fill="white"/>
<path d="M46.514 26.2691L44.2173 33.2594H41.2651L48.782 11.0443H52.227L59.7726 33.2594H56.7199L54.3562 26.2691H46.514ZM53.7677 24.0255L51.605 17.631C51.1122 16.1801 50.7868 14.8637 50.4567 13.5762H50.3945C50.0643 14.8926 49.7054 16.2426 49.2796 17.5974L47.1169 24.0207L53.7677 24.0255ZM62.0118 22.5122C62.0118 20.4703 61.9496 18.8177 61.8779 17.3043H64.4712L64.6052 20.0428H64.6674C65.8492 18.097 67.7201 16.944 70.3134 16.944C74.1556 16.944 77.0408 20.2061 77.0408 25.0536C77.0408 30.79 73.5622 33.6197 69.8206 33.6197C67.7201 33.6197 65.8827 32.6973 64.9305 31.1166H64.8683V39.7836H62.0118V22.5122ZM64.8636 26.764C64.8636 27.1964 64.9258 27.5855 64.9975 27.9506C65.5238 29.9588 67.2607 31.3473 69.3325 31.3473C72.3852 31.3473 74.1603 28.8442 74.1603 25.1833C74.1603 21.9837 72.4857 19.2549 69.433 19.2549C67.4665 19.2549 65.6291 20.6721 65.0645 22.8485C64.964 23.2088 64.8683 23.6412 64.8683 24.0351L64.8636 26.764ZM80.0265 22.5122C80.0265 20.4703 79.9642 18.8177 79.8925 17.3043H82.4858L82.6198 20.0428H82.682C83.8638 18.097 85.7347 16.944 88.328 16.944C92.1702 16.944 95.0554 20.2061 95.0554 25.0536C95.0554 30.79 91.5768 33.6197 87.8352 33.6197C85.7347 33.6197 83.8973 32.6973 82.9452 31.1166H82.8829V39.7836H80.0265V22.5122ZM82.8829 26.764C82.8829 27.1964 82.9451 27.5855 83.0169 27.9506C83.5432 29.9588 85.2801 31.3473 87.3519 31.3473C90.4046 31.3473 92.1797 28.8442 92.1797 25.1833C92.1797 21.9837 90.5051 19.2549 87.4524 19.2549C85.4859 19.2549 83.6485 20.6721 83.0839 22.8485C82.9834 23.2088 82.8877 23.6412 82.8877 24.0351L82.8829 26.764ZM98.0458 9.85767H100.936V33.2546H98.0458V9.85767ZM106.745 25.8079C106.807 29.7282 109.304 31.3473 112.19 31.3473C114.257 31.3473 115.505 30.9869 116.587 30.5257L117.08 32.6012C116.065 33.0624 114.324 33.5909 111.797 33.5909C106.907 33.5909 103.984 30.3624 103.984 25.5485C103.984 20.7346 106.807 16.944 111.434 16.944C116.62 16.944 117.998 21.5225 117.998 24.4579C117.998 25.0536 117.936 25.51 117.898 25.8079H106.745ZM115.214 23.7325C115.247 21.8876 114.458 19.0194 111.209 19.0194C108.285 19.0194 107.008 21.7243 106.778 23.7325H115.214Z" fill="white"/>
</svg>
