<svg width="122" height="41" viewBox="0 0 122 41" fill="none" xmlns="http://www.w3.org/2000/svg">
<g clip-path="url(#clip0_66_7131)">
<path d="M15.154 0.00317383H16.2299C19.9649 0.0841665 23.639 1.58253 26.2779 4.23504C25.3036 5.2272 24.3089 6.17887 23.3549 7.17103C21.873 5.83465 20.0867 4.80199 18.138 4.43752C15.2555 3.83008 12.1498 4.37678 9.73417 6.01688C7.09529 7.73798 5.30897 10.6537 4.92329 13.7719C4.49701 16.8497 5.36987 20.0894 7.37948 22.4787C9.30789 24.8072 12.2513 26.2651 15.2961 26.3663C18.138 26.5283 21.1017 25.6576 23.1722 23.6733C24.7961 22.2762 25.5472 20.1501 25.7907 18.0848C22.4211 18.0848 19.0515 18.105 15.6818 18.0848V13.9137H29.8709C30.6016 18.3885 29.5461 23.4303 26.1358 26.6295C23.8623 28.8973 20.716 30.2337 17.5087 30.4969C14.403 30.8007 11.1957 30.2135 8.43503 28.7151C5.12628 26.9535 2.4874 23.977 1.18826 20.4741C-0.0296903 17.2546 -0.0499893 13.61 1.08676 10.3702C2.12201 7.41401 4.11132 4.80199 6.66901 2.97966C9.1252 1.17757 12.1092 0.185407 15.154 0.00317383Z" fill="white"/>
<path d="M96.5532 1.0564H100.897V29.9708C99.456 29.9708 97.9945 29.991 96.5532 29.9505C96.5735 20.3327 96.5532 10.6945 96.5532 1.0564Z" fill="white"/>
<path d="M39.5329 11.0793C42.2124 10.5731 45.1151 11.14 47.3277 12.7396C49.3373 14.157 50.738 16.3843 51.1643 18.8141C51.7123 21.6286 51.0222 24.7063 49.1953 26.9336C47.2262 29.4241 43.9987 30.7605 40.8523 30.558C37.9699 30.396 35.1686 28.9584 33.4635 26.6096C31.535 24.0179 31.0682 20.4542 32.1237 17.417C33.1793 14.157 36.1632 11.6665 39.5329 11.0793ZM40.1419 14.9264C39.0457 15.2099 38.0308 15.8376 37.3 16.7285C35.331 19.0773 35.4528 22.9042 37.6248 25.091C38.863 26.3464 40.7305 26.9336 42.456 26.5894C44.0596 26.3059 45.4602 25.2327 46.2316 23.8154C47.5713 21.4058 47.1856 18.0851 45.1354 16.2021C43.816 14.9872 41.8876 14.481 40.1419 14.9264Z" fill="white"/>
<path d="M61.0504 11.0791C64.1156 10.4919 67.4649 11.3423 69.7587 13.4886C73.4938 16.8295 73.8998 23.0862 70.7128 26.9334C68.7844 29.3632 65.6583 30.6995 62.5729 30.5578C59.6295 30.4768 56.7267 29.0189 54.981 26.6094C53.012 23.9569 52.5857 20.3122 53.7022 17.2143C54.8186 14.0555 57.7417 11.646 61.0504 11.0791ZM61.6594 14.9262C60.5633 15.2097 59.5483 15.8374 58.8175 16.708C56.8688 19.0163 56.95 22.7825 59.0408 24.9896C60.2791 26.3057 62.2075 26.9536 63.9938 26.5892C65.5771 26.2854 66.9981 25.2325 67.7694 23.8152C69.0889 21.3854 68.7032 18.0647 66.6327 16.1816C65.3132 14.9667 63.3848 14.4807 61.6594 14.9262Z" fill="white"/>
<path d="M79.2989 12.2536C81.6333 10.7957 84.739 10.3908 87.2561 11.6461C88.0478 11.9904 88.6973 12.5776 89.3266 13.1648C89.3469 12.6181 89.3266 12.0511 89.3469 11.4842C90.707 11.5044 92.067 11.4842 93.4473 11.5044V29.3633C93.427 32.0563 92.7369 34.9113 90.7882 36.8754C88.6568 39.0419 85.3886 39.7101 82.4452 39.2647C79.2989 38.799 76.5585 36.5109 75.3406 33.6154C76.5585 33.0282 77.8373 32.5625 79.0959 32.0158C79.8063 33.6762 81.2476 35.0935 83.0542 35.4175C84.8608 35.7415 86.9516 35.296 88.129 33.7977C89.3875 32.2588 89.3875 30.153 89.3266 28.2699C88.3929 29.1811 87.317 29.991 86.0179 30.2947C83.1963 31.0844 80.0905 30.1125 77.9185 28.2092C75.7262 26.3058 74.4271 23.3698 74.5489 20.4541C74.6098 17.1537 76.4773 13.9747 79.2989 12.2536ZM83.5008 14.8454C82.2625 15.0478 81.1055 15.7363 80.3138 16.6879C78.4057 18.9557 78.4057 22.5802 80.3341 24.8075C81.4303 26.1236 83.1963 26.8525 84.9014 26.6703C86.5051 26.5083 87.9869 25.4959 88.7785 24.0988C90.1183 21.7297 89.895 18.5103 88.0884 16.445C86.9719 15.1693 85.1856 14.5416 83.5008 14.8454Z" fill="white"/>
<path d="M106.114 13.2862C108.55 11.0184 112.306 10.249 115.432 11.4436C118.395 12.5573 120.283 15.3718 121.237 18.2672C116.832 20.0896 112.448 21.8917 108.043 23.714C108.652 24.8682 109.586 25.9211 110.844 26.3463C112.61 26.974 114.721 26.7512 116.203 25.5768C116.792 25.1314 117.259 24.5442 117.705 23.9772C118.822 24.7264 119.938 25.4553 121.055 26.2045C119.471 28.5736 116.812 30.2339 113.95 30.4971C110.783 30.8819 107.414 29.667 105.363 27.1967C101.994 23.309 102.318 16.7891 106.114 13.2862ZM108.286 17.0321C107.596 18.0243 107.312 19.2392 107.332 20.4338C110.276 19.2189 113.219 18.004 116.162 16.7689C115.675 15.635 114.498 14.9465 113.3 14.7643C111.372 14.4201 109.362 15.4527 108.286 17.0321Z" fill="white"/>
</g>
<defs>
<clipPath id="clip0_66_7131">
<rect width="121.321" height="40.1775" fill="white" transform="translate(0.253906)"/>
</clipPath>
</defs>
</svg>
