<svg width="158" height="32" viewBox="0 0 158 32" fill="none" xmlns="http://www.w3.org/2000/svg">
<path d="M58.1104 1.32935H64.0383L74.118 19.5627L84.1975 1.32935H89.9972V31.2902H85.1607V8.32748L76.3222 24.2281H71.7853L62.9468 8.32748V31.2902H58.1104V1.32935Z" fill="white"/>
<path d="M105.598 31.8253C103.358 31.8253 101.389 31.3295 99.6913 30.338C97.9934 29.3464 96.6701 27.9732 95.7215 26.2184C94.7725 24.4634 94.2982 22.4518 94.2983 20.1834C94.2983 17.8865 94.762 15.8534 95.6894 14.0842C96.6167 12.3153 97.9043 10.9314 99.5522 9.93234C101.2 8.93393 103.094 8.43459 105.234 8.43433C107.36 8.43433 109.189 8.93721 110.723 9.94299C112.257 10.949 113.437 12.358 114.265 14.1697C115.092 15.9818 115.506 18.1076 115.506 20.5472V21.8738H99.0921C99.3917 23.7004 100.13 25.1378 101.307 26.1861C102.484 27.2348 103.971 27.7591 105.769 27.759C107.21 27.759 108.451 27.545 109.493 27.117C110.534 26.689 111.511 26.0399 112.425 25.1696L114.993 28.3155C112.439 30.6555 109.307 31.8255 105.598 31.8253ZM109.129 14.0519C108.116 13.0177 106.789 12.5005 105.148 12.5003C103.55 12.5003 102.213 13.0283 101.136 14.0842C100.058 15.14 99.3772 16.5595 99.0921 18.3429H110.862C110.72 16.5166 110.142 15.0863 109.129 14.0519Z" fill="white"/>
<path d="M121.37 12.9286H116.919V8.9694H121.37V2.4209H126.036V8.9694H132.798V12.9286H126.036V22.9654C126.036 24.6345 126.321 25.8257 126.892 26.5392C127.462 27.2528 128.439 27.6094 129.824 27.6092C130.437 27.6092 130.957 27.5842 131.386 27.5343C131.814 27.4846 132.285 27.4168 132.798 27.331V31.2472C132.212 31.4167 131.615 31.5455 131.011 31.6326C130.32 31.7343 129.623 31.7843 128.925 31.7824C123.888 31.7824 121.37 29.0288 121.37 23.5218V12.9286Z" fill="white"/>
<path d="M157.11 31.2902H152.53V28.1657C151.717 29.3357 150.683 30.2381 149.427 30.8728C148.171 31.5074 146.745 31.8249 145.147 31.8253C143.178 31.8253 141.434 31.3223 139.914 30.3164C138.395 29.3106 137.2 27.9267 136.33 26.1648C135.46 24.4028 135.024 22.3875 135.024 20.1192C135.024 17.8365 135.467 15.8176 136.351 14.0626C137.236 12.3079 138.459 10.9312 140.021 9.93234C141.584 8.93393 143.378 8.43459 145.404 8.43433C146.93 8.43433 148.3 8.7304 149.513 9.32257C150.709 9.90128 151.745 10.7647 152.53 11.837V8.96945H157.11V31.2902ZM152.445 16.7806C151.945 15.5108 151.157 14.5085 150.08 13.7737C149.002 13.039 147.758 12.6717 146.345 12.6717C144.348 12.6717 142.757 13.3422 141.573 14.6833C140.389 16.0244 139.797 17.8363 139.797 20.1191C139.797 22.4163 140.368 24.2354 141.509 25.5763C142.65 26.9175 144.198 27.588 146.153 27.5879C147.594 27.5879 148.878 27.2169 150.005 26.475C151.132 25.7335 151.945 24.7348 152.445 23.4789L152.445 16.7806Z" fill="white"/>
<path d="M5.83042 21.114C5.83042 22.9255 6.22804 24.3163 6.74773 25.1577C7.42911 26.2598 8.4454 26.7267 9.48149 26.7267C10.8179 26.7267 12.0404 26.3951 14.3963 23.1367C16.2837 20.525 18.5077 16.8591 20.0041 14.5609L22.5382 10.6673C24.2986 7.96324 26.3361 4.95723 28.6723 2.91969C30.5795 1.25667 32.6368 0.332764 34.7074 0.332764C38.1836 0.332764 41.4948 2.3472 44.0289 6.12531C46.8023 10.2631 48.1485 15.4749 48.1485 20.8534C48.1485 24.0507 47.5183 26.4001 46.4459 28.2561C45.4098 30.0511 43.3904 31.8445 39.9934 31.8445V26.7267C42.9021 26.7267 43.628 24.054 43.628 20.9952C43.628 16.6364 42.6117 11.7991 40.3729 8.34268C38.7841 5.89104 36.7251 4.39298 34.4599 4.39298C32.0099 4.39298 30.0384 6.24079 27.8226 9.5355C26.6447 11.286 25.4353 13.4192 24.0775 15.8263L22.5828 18.4743C19.5801 23.7983 18.8195 25.0109 17.3182 27.0121C14.6867 30.5164 12.4396 31.8445 9.48149 31.8445C5.9723 31.8445 3.75328 30.325 2.37897 28.0351C1.25709 26.1691 0.706055 23.7207 0.706055 20.9309L5.83042 21.114Z" fill="white"/>
<path d="M4.74658 6.48661C7.09593 2.86524 10.4863 0.332764 14.375 0.332764C16.627 0.332764 18.8658 0.9993 21.2036 2.90816C23.7609 4.99519 26.4864 8.43179 29.8867 14.0956L31.1059 16.1282C34.0492 21.0315 35.7238 23.5541 36.7038 24.7436C37.9642 26.2714 38.8469 26.7267 39.9935 26.7267C42.9022 26.7267 43.6281 24.054 43.6281 20.9952L48.1486 20.8534C48.1486 24.0507 47.5184 26.4001 46.446 28.2561C45.4099 30.0511 43.3905 31.8445 39.9935 31.8445C37.8817 31.8445 36.0108 31.3858 33.942 29.4341C32.3515 27.9361 30.4922 25.2749 29.0618 22.8826L24.8069 15.7752C22.672 12.2082 20.7136 9.5487 19.5802 8.34433C18.361 7.04921 16.7936 5.48517 14.2925 5.48517C12.2682 5.48517 10.549 6.90568 9.11038 9.07851L4.74658 6.48661Z" fill="white"/>
<path d="M14.2924 5.48517C12.2681 5.48517 10.5489 6.90568 9.11028 9.07851C7.07604 12.1488 5.83042 16.7222 5.83042 21.114C5.83042 22.9255 6.22804 24.3163 6.74773 25.1577L2.37897 28.0351C1.25709 26.1691 0.706055 23.7207 0.706055 20.9309C0.706055 15.8577 2.0985 10.5699 4.74648 6.48661C7.09584 2.86524 10.4862 0.332764 14.3749 0.332764L14.2924 5.48517Z" fill="white"/>
</svg>
