<svg width="40" height="40" viewBox="0 0 40 40" fill="none" xmlns="http://www.w3.org/2000/svg">
<path d="M20 36.0001C21.9764 34.1721 23.224 31.5653 23.224 28.6669C23.224 25.7685 21.9764 23.1613 20 21.3333H28.6668C32.716 21.3333 36 24.6173 36 28.6669C36 32.7161 32.716 36.0001 28.6668 36.0001H20Z" fill="#4F46E5"/>
<path d="M4 36.0001C5.9764 34.1721 7.224 31.5653 7.224 28.6669C7.224 25.7685 5.9764 23.1613 4 21.3333H12.6668C16.7148 21.3333 19.9988 24.6173 19.9988 28.6669C19.9988 32.7161 16.7148 36.0001 12.6668 36.0001H4Z" fill="#A7A3F2"/>
<path d="M20 18.6668C21.9764 16.8384 23.224 14.232 23.224 11.3336C23.224 8.4352 21.9764 5.828 20 4H28.6668C32.716 4 36 7.2836 36 11.3332C36 15.3828 32.716 18.6664 28.6668 18.6664L20 18.6668Z" fill="#C1BEF6"/>
<path d="M4 18.6668C5.9764 16.8384 7.224 14.232 7.224 11.3336C7.224 8.4352 5.9764 5.828 4 4H12.6668C16.7148 4 19.9988 7.2836 19.9988 11.3332C19.9988 15.3828 16.7148 18.6664 12.6668 18.6664L4 18.6668Z" fill="#DCDAFA"/>
</svg>
