<svg width="40" height="40" viewBox="0 0 40 40" fill="none" xmlns="http://www.w3.org/2000/svg">
<g clip-path="url(#clip0_75_6402)">
<path d="M17.1095 16.9385C15.5779 16.2354 13.8805 15.8335 12.0835 15.8335C5.40996 15.8335 0 21.2435 0 27.9165C0 34.59 5.40996 40 12.0835 40C13.8805 40 15.5775 39.598 17.1095 38.895C14.2675 36.097 12.5 32.2105 12.5 27.9165C12.5 23.623 14.2675 19.7365 17.1095 16.9385Z" fill="#4F46E5"/>
<path d="M38.895 22.8889C36.097 25.7324 32.2105 27.5 27.9165 27.5C23.623 27.5 19.7365 25.7325 16.9385 22.8889C16.2354 24.4219 15.8335 26.1194 15.8335 27.9165C15.8335 34.59 21.2435 40 27.9165 40C34.59 40 40 34.59 40 27.9165C40 26.1195 39.598 24.4224 38.895 22.8889Z" fill="#3025E0"/>
<path d="M27.9167 0C26.1197 0 24.4227 0.401953 22.8892 1.10498C25.7326 3.90293 27.5002 7.78945 27.5002 12.0835C27.5002 16.377 25.7327 20.2635 22.8892 23.0615C24.4222 23.7645 26.1196 24.1665 27.9167 24.1665C34.5902 24.1665 40.0002 18.7565 40.0002 12.0835C40.0002 5.40996 34.5902 0 27.9167 0Z" fill="#A7A3F2"/>
<path d="M12.0835 0C5.40996 0 0 5.40996 0 12.0835C0 13.8805 0.401953 15.5775 1.10498 17.1095C3.90303 14.2675 7.78945 12.5 12.0835 12.5C16.377 12.5 20.2635 14.2675 23.0615 17.1095C23.7645 15.5779 24.1665 13.8805 24.1665 12.0835C24.1665 5.40996 18.7565 0 12.0835 0Z" fill="#DCDAFA"/>
</g>
<defs>
<clipPath id="clip0_75_6402">
<rect width="40" height="40" fill="white"/>
</clipPath>
</defs>
</svg>
